<svg width="32" height="32" viewBox="0 0 32 32" fill="none" xmlns="http://www.w3.org/2000/svg">
<g opacity="0.5">
<path d="M9.09085 26.4243C9.09085 27.9281 10.3143 29.1516 11.8181 29.1516C13.3219 29.1516 14.5454 27.9281 14.5454 26.4243C14.5454 24.9205 13.3219 23.697 11.8181 23.697C10.3143 23.697 9.09085 24.9205 9.09085 26.4243ZM11.8181 25.5152C12.3193 25.5152 12.7272 25.9231 12.7272 26.4243C12.7272 26.9255 12.3193 27.3334 11.8181 27.3334C11.3169 27.3334 10.909 26.9255 10.909 26.4243C10.909 25.9231 11.3169 25.5152 11.8181 25.5152Z" fill="black"/>
<path d="M21.9392 26.4243C21.9392 27.9281 23.1627 29.1516 24.6665 29.1516C26.1703 29.1516 27.3938 27.9281 27.3938 26.4243C27.3938 24.9205 26.1703 23.697 24.6665 23.697C23.1627 23.697 21.9392 24.9205 21.9392 26.4243ZM24.6665 25.5152C25.1677 25.5152 25.5756 25.9231 25.5756 26.4243C25.5756 26.9255 25.1677 27.3334 24.6665 27.3334C24.1653 27.3334 23.7574 26.9255 23.7574 26.4243C23.7574 25.9231 24.1653 25.5152 24.6665 25.5152Z" fill="black"/>
<path d="M10.9673 22.061H10.9688C10.9699 22.061 10.9711 22.0608 10.9723 22.0608H27.4546C27.8604 22.0608 28.2171 21.7916 28.3286 21.4014L31.965 8.67413C32.0434 8.39975 31.9884 8.10476 31.8168 7.87702C31.6449 7.64927 31.3762 7.51528 31.091 7.51528H8.87075L8.22089 4.59079C8.12832 4.17483 7.75948 3.87891 7.33334 3.87891H1.87879C1.37666 3.87891 0.969696 4.28587 0.969696 4.788C0.969696 5.29013 1.37666 5.69709 1.87879 5.69709H6.60418C6.71923 6.21532 9.71403 19.6921 9.88638 20.4675C8.92023 20.8875 8.24243 21.8508 8.24243 22.9698C8.24243 24.4736 9.46592 25.6971 10.9697 25.6971H27.4546C27.9567 25.6971 28.3637 25.2902 28.3637 24.788C28.3637 24.2859 27.9567 23.8789 27.4546 23.8789H10.9697C10.4685 23.8789 10.0606 23.471 10.0606 22.9698C10.0606 22.4694 10.4671 22.0622 10.9673 22.061ZM29.8857 9.33346L26.7687 20.2426H11.6989L9.27463 9.33346H29.8857Z" fill="black"/>
</g>
</svg>
